<?xml version="1.0" encoding="utf-8"?>
<!-- Generator: Adobe Illustrator 24.1.1, SVG Export Plug-In . SVG Version: 6.00 Build 0)  -->
<svg version="1.1" id="Layer_1" xmlns="http://www.w3.org/2000/svg" xmlns:xlink="http://www.w3.org/1999/xlink" x="0px"
    y="0px" viewBox="0 0 512 512" style="enable-background:new 0 0 512 512;" xml:space="preserve">
    <defs>
        <linearGradient id='lgServiceDice' gradientUnits='userSpaceOnUse' x1='-5.92%' y1='7.86%' x2='105.92%'
            y2='92.14%'>
            <stop class='hsc-stop-1' />
            <stop class='hsc-stop-2' offset='.91' />
        </linearGradient>
    </defs>
    <g fill="url(#lgServiceDice)">
        <path id="XMLID_12_" class="st0" d="M26.5,0C11.9,0,0,11.9,0,26.5v34.1v390.8v34.1C0,500.1,11.9,512,26.5,512h34.1h390.8h34.1
		c15.4,0,26.5-11.9,26.5-26.5v-34.1V60.6V26.5C512,11.1,500.1,0,485.5,0h-34.1H60.6H26.5z M57.2,57.2h398.5v398.5H57.2V57.2z
		 M156.2,104.1c-23.9,0-42.7,18.8-42.7,42.7s18.8,42.7,42.7,42.7s42.7-18.8,42.7-42.7C198.8,123.7,180.1,104.1,156.2,104.1z
		 M355.8,104.1c-23.9,0-42.7,18.8-42.7,42.7s18.8,42.7,42.7,42.7c23.9,0,42.7-18.8,42.7-42.7C398.5,123.7,378.9,104.1,355.8,104.1z
		 M156.2,213.3c-23.9,0-42.7,18.8-42.7,42.7s18.8,42.7,42.7,42.7s42.7-18.8,42.7-42.7S180.1,213.3,156.2,213.3z M355.8,213.3
		c-23.9,0-42.7,18.8-42.7,42.7s18.8,42.7,42.7,42.7c23.9,0,42.7-18.8,42.7-42.7S378.9,213.3,355.8,213.3z M156.2,322.6
		c-23.9,0-42.7,18.8-42.7,42.7c0,23.9,18.8,42.7,42.7,42.7s42.7-18.8,42.7-42.7S180.1,322.6,156.2,322.6z M355.8,322.6
		c-23.9,0-42.7,18.8-42.7,42.7c0,23.9,18.8,42.7,42.7,42.7c23.9,0,42.7-18.8,42.7-42.7S378.9,322.6,355.8,322.6z" />
    </g>
</svg>