<svg width="1000" height="1190" xmlns="http://www.w3.org/2000/svg" class="work-individual-os" viewBox="0 0 1000 1190"
    preserveAspectRatio="xMidYMid">
    <path fill="var(--logo-darkest)"
        d="m979.042,926.58812c-17.954,41.478 -39.206,79.657 -63.828,114.76c-33.563,47.852 -61.044,80.975 -82.222,99.37c-32.83,30.191 -68.006,45.654 -105.672,46.533c-27.041,0 -59.652,-7.695 -97.611,-23.304c-38.085,-15.535 -73.084,-23.23 -105.086,-23.23c-33.563,0 -69.56,7.695 -108.061,23.23c-38.561,15.61 -69.625,23.744 -93.376,24.55c-36.12,1.539 -72.123,-14.364 -108.06,-47.78c-22.938,-20.006 -51.627,-54.302 -85.997,-102.887c-36.875,-51.884 -67.191,-112.048 -90.942,-180.64c-25.436,-74.086 -38.187,-145.829 -38.187,-215.285c0,-79.562 17.192,-148.183 51.627,-205.687c27.063,-46.189 63.066,-82.625 108.127,-109.372c45.06,-26.748 93.749,-40.379 146.182,-41.25c28.69,0 66.312,8.874 113.066,26.315c46.622,17.5 76.557,26.374 89.682,26.374c9.812,0 43.068,-10.377 99.443,-31.064c53.313,-19.185 98.307,-27.13 135.168,-24c99.883,8.061 174.923,47.435 224.828,118.372c-89.33,54.126 -133.52,129.935 -132.64,227.187c0.806,75.751 28.287,138.788 82.295,188.84c24.476,23.23 51.81,41.184 82.222,53.935c-6.595,19.126 -13.557,37.447 -20.958,55.034l0,-0.001zm-229.078,-901.436c0,59.373 -21.692,114.81 -64.928,166.122c-52.176,61 -115.286,96.248 -183.724,90.686a184.836,184.836 0 0 1 -1.378,-22.498c0,-56.998 24.813,-117.998 68.878,-167.873c21.999,-25.253 49.978,-46.25 83.907,-63c33.856,-16.5 65.88,-25.625 95.999,-27.188c0.88,7.937 1.246,15.875 1.246,23.75l0,0.001z"
        id="svg_1" />
</svg>